<?xml version="1.0" standalone="no"?>
<!DOCTYPE svg PUBLIC "-//W3C//DTD SVG 20010904//EN"
 "http://www.w3.org/TR/2001/REC-SVG-20010904/DTD/svg10.dtd">
<svg version="1.0" xmlns="http://www.w3.org/2000/svg"
 width="564.000000pt" height="712.000000pt" viewBox="0 0 564.000000 712.000000"
 preserveAspectRatio="xMidYMid meet">

<g transform="translate(0.000000,712.000000) scale(0.100000,-0.100000)"
fill="#000000" stroke="none">
<path d="M0 3904 c0 -2565 3 -3215 13 -3211 6 3 50 22 97 42 47 20 99 43 115
50 84 37 154 65 164 65 6 0 16 11 21 25 10 27 26 33 32 13 4 -12 14 -9 93 22
36 14 80 28 108 35 16 3 47 17 69 31 29 19 43 23 51 15 15 -15 30 -14 24 2 -3
8 4 13 22 14 69 3 91 7 91 15 0 5 9 7 19 3 13 -4 23 0 30 12 6 10 11 12 11 6
0 -7 4 -13 8 -13 5 0 7 15 6 32 -2 18 -1 24 2 13 3 -11 11 -24 16 -30 7 -7 8
-2 3 15 -4 14 -4 22 0 18 4 -4 17 -3 27 3 13 7 24 7 30 1 11 -11 48 -4 48 9 0
4 11 6 24 3 14 -2 26 1 29 10 4 10 19 13 55 10 36 -4 54 0 65 11 9 8 28 15 44
15 16 0 38 7 50 15 18 13 22 12 38 -5 15 -17 16 -25 6 -64 -6 -25 -11 -82 -11
-128 0 -54 -5 -89 -12 -97 -11 -11 -8 -13 13 -8 24 6 25 5 26 -41 1 -45 -2
-49 -31 -62 -17 -8 -34 -13 -38 -12 -5 1 -8 -3 -8 -8 0 -6 -13 -10 -28 -10
-16 0 -32 -3 -36 -7 -3 -4 -23 -7 -44 -8 -21 -1 -44 -5 -52 -10 -8 -5 -23 -10
-35 -12 -37 -5 -50 -8 -63 -17 -22 -13 -22 -2 -2 29 11 17 20 24 20 17 0 -7 5
-10 11 -7 6 4 8 13 5 21 -5 12 14 35 67 80 7 6 24 17 38 24 13 7 34 21 46 30
l23 18 -29 -3 c-16 -1 -37 -10 -47 -19 -12 -13 -27 -17 -50 -13 -45 7 -102 -7
-123 -32 -23 -26 -33 -26 -50 -2 -14 19 -15 19 -80 -1 -36 -12 -86 -22 -111
-23 -98 -4 -100 -5 -100 -22 -1 -16 -2 -16 -15 1 -15 19 -15 19 -15 -5 -1 -22
-2 -23 -14 -6 -8 10 -16 13 -18 7 -2 -6 -14 -11 -28 -12 -32 -1 -179 -47 -205
-65 -23 -15 -39 -17 -30 -4 10 17 -11 21 -39 8 -26 -12 -35 -27 -15 -27 5 0 7
-5 4 -10 -3 -6 -11 -10 -16 -10 -6 0 -8 4 -4 9 10 18 -14 22 -57 10 -24 -6
-53 -13 -65 -14 -27 -4 -43 -13 -43 -25 0 -5 8 -7 17 -3 17 5 17 5 1 -12 -15
-16 -19 -16 -34 -4 -16 12 -17 12 -11 -3 5 -14 1 -18 -16 -19 -41 -3 -65 -6
-80 -12 -9 -3 -18 -1 -21 6 -2 7 -5 -120 -5 -280 l-1 -293 1372 0 1371 0 -19
22 -19 22 36 -22 c41 -25 75 -31 44 -8 -18 13 -16 14 23 12 23 -1 48 -8 54
-14 17 -17 33 -15 18 3 -16 19 0 19 26 0 10 -8 26 -14 34 -14 11 0 10 3 -4 14
-15 11 -16 15 -5 15 8 0 24 -7 35 -15 10 -8 25 -15 33 -15 11 0 9 4 -5 14 -17
14 -15 15 26 12 25 -1 56 -8 68 -15 13 -7 26 -10 29 -8 2 3 -5 11 -17 17 -40
21 -13 22 29 1 47 -25 80 -28 36 -4 -45 24 -13 28 34 4 22 -12 46 -21 53 -20
7 0 -2 7 -21 15 -18 8 -31 17 -28 20 13 13 187 21 227 10 24 -6 24 -6 3 3 -32
14 -28 24 6 19 18 -3 27 0 24 5 -6 10 24 6 62 -8 16 -5 17 -5 5 4 -23 16 -7
21 34 10 21 -6 40 -8 44 -5 3 3 -2 6 -11 6 -9 0 -19 5 -23 11 -4 8 3 9 25 4
18 -4 31 -3 31 3 0 14 123 35 152 27 23 -7 23 -7 3 10 -19 16 -18 16 20 10 29
-4 36 -3 25 4 -12 9 -11 11 8 11 12 0 22 5 22 10 0 6 11 10 24 10 14 0 27 4
30 9 3 4 18 6 33 4 22 -4 25 -2 13 6 -12 8 -8 11 20 11 26 0 31 3 20 10 -12 8
-11 10 8 10 12 0 22 5 22 10 0 6 12 10 26 10 14 0 23 4 19 10 -4 6 5 10 20 10
15 0 24 4 20 10 -4 6 6 10 22 10 22 0 25 2 13 10 -13 8 -12 10 3 10 10 0 27 9
39 20 12 11 30 20 40 20 11 0 16 5 13 10 -3 6 1 10 9 10 9 0 16 5 16 11 0 14
26 39 40 39 6 0 9 4 6 8 -3 5 4 15 15 22 10 8 19 20 19 26 0 6 7 17 15 24 9 7
14 14 12 16 -2 2 -28 -20 -58 -49 -69 -67 -146 -120 -161 -111 -7 4 -8 3 -4
-4 11 -17 -192 -114 -339 -161 -233 -76 -505 -119 -800 -125 l-180 -4 150 8
c153 8 377 29 384 36 2 2 -11 5 -30 5 -40 2 -41 1 119 30 68 12 121 23 118 26
-2 3 -46 -3 -98 -11 -155 -27 -364 -46 -524 -46 -160 0 -308 9 -299 19 3 3 16
6 28 6 17 0 23 7 25 31 l3 31 -63 7 c-79 9 -190 27 -186 31 7 7 231 -16 248
-25 11 -6 20 -21 20 -34 0 -13 7 -29 15 -36 12 -10 15 -10 15 4 0 9 7 16 17
16 12 0 10 6 -10 23 -15 12 -27 26 -27 30 0 4 60 7 133 7 291 0 716 58 912
125 252 85 408 167 530 278 28 24 58 58 67 74 12 20 -4 9 -48 -34 -75 -74
-151 -125 -267 -182 -160 -77 -403 -148 -637 -186 -99 -15 -446 -42 -454 -34
-2 2 -1 20 4 39 5 24 8 28 9 13 1 -18 7 -23 27 -23 17 0 23 -4 19 -12 -4 -7 0
-5 8 4 10 13 42 20 133 29 65 6 121 13 123 15 6 6 -59 4 -157 -4 -57 -5 -89
-4 -105 5 -21 11 -20 12 11 11 18 -1 35 2 39 5 3 4 -68 7 -158 7 -90 0 -171 5
-179 10 -10 6 34 10 135 10 678 1 1307 208 1493 490 23 36 47 71 53 78 8 10 4
22 -16 48 l-27 36 -25 -43 c-25 -45 -117 -162 -152 -193 -10 -10 -30 -19 -44
-20 -14 -2 -48 -17 -76 -35 -59 -36 -71 -39 -46 -11 10 11 16 20 12 20 -3 0
41 46 98 103 88 87 195 227 195 254 0 4 -19 -21 -41 -57 -55 -87 -131 -173
-183 -208 -36 -24 -42 -26 -42 -11 0 10 4 15 8 13 12 -7 142 130 187 196 54
79 96 156 132 241 33 77 85 254 96 324 3 22 10 46 15 52 15 19 13 154 -2 209
-10 36 -11 49 -2 52 13 4 17 74 5 86 -5 4 -9 12 -9 17 -1 5 -2 14 -3 19 0 6
-6 10 -12 10 -8 0 -8 -5 1 -15 9 -10 9 -15 1 -15 -6 0 -12 6 -12 13 -2 16 -3
22 -18 95 -8 34 -17 62 -22 62 -5 0 -6 6 -3 14 3 7 -4 31 -15 52 -12 21 -19
48 -16 59 3 11 2 14 -1 6 -5 -9 -11 -4 -20 18 -7 17 -20 31 -29 31 -11 0 -16
8 -15 23 3 38 0 48 -11 41 -9 -5 -10 1 -5 22 4 19 3 24 -3 15 -7 -11 -10 -9
-16 8 -3 11 -15 26 -26 31 -10 6 -19 17 -19 25 0 8 -6 15 -14 15 -8 0 -17 6
-19 13 -3 6 -6 0 -6 -15 -1 -34 -7 -35 -30 -6 -17 20 -17 23 3 60 12 21 29 41
38 44 13 4 18 16 18 45 0 35 -3 40 -18 35 -11 -4 -19 -1 -20 6 -1 7 -3 28 -4
46 -5 49 -163 216 -288 304 -103 72 -151 110 -146 115 3 3 11 1 18 -4 7 -6 27
-15 43 -21 17 -5 39 -13 50 -17 12 -4 8 1 -9 13 -17 12 -33 19 -37 16 -4 -2
-9 2 -12 10 -3 7 -20 16 -38 20 -18 3 -29 9 -26 13 9 8 -55 45 -119 68 -206
74 -208 75 -221 57 -12 -14 -13 -14 -13 4 0 16 -14 23 -72 39 -40 11 -80 20
-88 21 -8 1 -60 9 -115 18 -147 22 -225 28 -365 27 -171 -1 -249 -8 -287 -26
-18 -9 -48 -14 -68 -12 -19 2 -35 0 -35 -5 0 -6 -11 -7 -24 -4 -14 3 -27 2
-30 -3 -6 -9 -61 -23 -106 -26 -14 -2 -42 -10 -64 -19 -21 -9 -53 -16 -72 -16
-18 0 -36 -5 -40 -11 -3 -6 -15 -9 -25 -6 -11 3 -17 2 -14 -2 6 -11 -44 -33
-57 -25 -7 4 -8 2 -4 -4 4 -7 1 -12 -7 -12 -8 0 -25 -9 -39 -19 -13 -11 -37
-23 -51 -26 -15 -4 -25 -10 -22 -14 2 -4 -9 -7 -25 -6 -17 1 -30 -2 -30 -7 0
-4 -7 -8 -15 -8 -8 0 -15 -4 -15 -10 0 -5 -5 -10 -10 -10 -44 0 -280 -238
-280 -282 0 -7 -6 -22 -13 -33 -20 -30 -33 -92 -36 -170 -3 -92 -8 -109 -42
-146 -18 -20 -29 -42 -29 -60 0 -16 -4 -29 -10 -29 -5 0 -12 -11 -16 -25 -3
-14 -13 -25 -21 -25 -10 0 -12 -6 -8 -19 4 -12 -1 -26 -14 -38 -14 -13 -22
-42 -30 -108 -6 -49 -11 -96 -11 -103 0 -7 -5 -10 -11 -6 -9 5 -10 -1 -5 -19
3 -15 2 -46 -4 -71 -5 -25 -11 -76 -12 -115 -1 -38 -5 -68 -9 -65 -4 2 -10
-10 -12 -28 -2 -18 -5 33 -5 114 -3 201 20 365 84 603 5 19 4 19 -9 3 -8 -10
-19 -18 -26 -18 -6 0 -11 -4 -11 -10 0 -5 -7 -10 -15 -10 -8 0 -24 -9 -36 -21
-17 -17 -20 -28 -14 -69 13 -96 -44 -156 -125 -131 -72 21 -103 118 -55 171
14 16 13 20 -19 54 -21 23 -36 33 -41 27 -3 -6 -11 -9 -16 -6 -5 4 -9 2 -9 -4
0 -5 -17 -1 -37 9 -21 10 -41 16 -46 13 -4 -2 -6 1 -5 9 2 8 -5 12 -21 10 -17
-1 -22 2 -18 13 4 8 2 17 -3 20 -4 3 -10 0 -12 -7 -2 -6 -12 -9 -21 -5 -19 7
-23 27 -6 27 6 0 26 16 44 36 19 20 39 33 44 29 7 -4 8 0 5 10 -4 9 -3 15 2
14 5 -1 21 3 37 9 63 27 74 30 88 22 9 -6 21 -3 34 10 53 49 228 39 249 -15 3
-8 12 -15 20 -15 7 0 17 -8 20 -17 6 -15 8 -15 16 -3 8 12 10 10 11 -10 1 -14
1 -31 0 -37 -4 -29 10 -8 54 80 70 137 126 216 224 315 213 215 449 326 846
398 120 22 429 30 580 15 109 -11 419 -71 469 -91 11 -5 62 -23 111 -41 107
-37 271 -118 338 -165 26 -19 50 -34 54 -34 3 0 14 -7 24 -16 16 -15 17 -14
12 6 -10 38 -124 119 -258 185 -320 156 -603 218 -990 218 -367 1 -590 -48
-885 -191 -74 -36 -140 -67 -147 -68 -7 -1 -27 -16 -45 -33 -18 -16 -34 -28
-37 -25 -7 7 73 74 89 74 8 0 29 9 45 21 106 72 345 170 510 209 275 66 696
66 995 1 147 -33 361 -109 507 -181 110 -55 141 -66 156 -58 14 7 17 7 13 -1
-4 -6 -2 -11 5 -11 17 0 79 -49 79 -62 0 -19 31 -47 46 -41 8 3 23 -2 32 -10
9 -9 53 -47 97 -86 141 -122 237 -235 230 -272 -3 -13 0 -17 7 -13 7 5 9 2 6
-7 -3 -8 10 -45 28 -84 l34 -70 -6 45 c-19 141 -113 274 -334 472 -227 203
-459 318 -822 407 -399 98 -852 93 -1213 -15 -123 -36 -143 -39 -60 -9 154 57
357 98 550 112 97 8 98 8 45 15 -30 3 49 5 175 3 298 -4 466 -31 702 -111 199
-67 368 -143 442 -198 48 -36 63 -33 21 4 l-35 31 50 -30 c47 -28 185 -163
335 -327 36 -38 58 -61 50 -50 -8 12 -17 23 -20 26 -3 3 -20 23 -39 45 -91
107 -271 289 -311 314 -119 76 -499 258 -592 285 -163 47 -469 71 -803 63
-258 -7 -422 -24 -531 -58 -75 -23 -242 -104 -421 -205 -64 -35 -117 -64 -119
-64 -2 0 -4 25 -4 55 0 44 4 57 18 61 9 3 87 39 172 79 85 41 189 89 230 108
42 19 82 42 89 51 17 20 79 32 306 58 242 28 674 30 849 4 112 -16 148 -15 80
3 -118 30 -452 42 -759 27 -145 -7 -468 -54 -497 -72 -7 -5 -8 -2 -3 6 8 13
95 55 107 52 4 -1 20 12 37 28 16 17 33 30 37 30 4 0 15 6 23 14 9 8 34 17 56
20 31 5 35 4 18 -3 -37 -16 -27 -26 24 -24 211 6 213 7 146 10 -35 2 -63 8
-63 12 0 9 80 21 140 21 19 0 42 5 50 10 10 6 -8 8 -55 5 -51 -3 -66 -2 -55 6
12 9 12 10 -4 5 -61 -20 -112 -28 -148 -23 -23 3 -50 1 -59 -4 -11 -5 -20 -5
-23 0 -8 12 41 23 67 15 19 -6 20 -5 9 8 -10 13 -4 16 45 22 75 9 215 16 186
10 -38 -9 -26 -22 15 -17 73 9 89 11 205 18 100 6 117 5 117 -8 0 -12 11 -11
72 6 l71 21 15 -22 c16 -24 38 -29 45 -9 4 9 8 8 16 -3 10 -13 15 -8 12 13 -2
11 17 8 21 -3 2 -6 50 -13 113 -15 72 -3 105 -1 95 5 -12 8 -10 10 9 10 13 0
30 -8 38 -17 8 -10 12 -13 9 -6 -4 6 -2 14 4 18 5 3 10 0 10 -7 1 -20 23 -44
49 -53 l23 -7 -22 22 c-15 15 -19 25 -11 33 7 7 23 2 53 -18 24 -16 51 -28 61
-28 9 1 17 -2 17 -8 0 -5 7 -9 16 -9 27 0 324 -150 336 -170 7 -11 17 -20 21
-20 5 0 14 -6 21 -12 44 -43 169 -153 213 -187 60 -48 210 -241 188 -241 -5 0
-1 -8 8 -18 10 -10 14 -22 10 -26 -5 -4 -3 -6 2 -4 6 2 11 0 12 -5 2 -4 7 -13
13 -20 37 -42 104 -140 129 -189 30 -59 31 -83 1 -46 -17 21 -17 21 -34 -28
-9 -26 -33 -65 -52 -85 -41 -42 -39 -69 4 -41 15 10 36 23 47 29 11 6 19 16
18 21 -2 6 11 24 27 41 17 16 30 35 30 41 0 6 5 8 10 5 6 -3 10 -1 10 5 0 8
10 9 30 5 29 -6 42 7 19 20 -6 4 -8 13 -5 21 3 7 -1 35 -9 61 -8 26 -13 49
-11 51 2 2 7 -7 11 -20 4 -13 11 -25 15 -28 5 -3 34 -54 65 -115 31 -60 60
-114 64 -120 4 -5 20 -40 36 -77 28 -67 51 -90 67 -66 6 8 7 4 3 -11 -5 -16
-3 -22 6 -19 6 2 28 -11 48 -29 20 -18 42 -33 50 -33 11 0 11 -3 1 -15 -6 -8
-9 -19 -5 -25 4 -6 3 -9 -2 -8 -4 1 -23 -12 -42 -29 -19 -18 -37 -30 -41 -28
-3 2 0 -35 6 -83 20 -138 14 -146 -16 -25 -32 127 -49 167 -50 116 0 -17 4
-34 9 -37 5 -3 17 -41 26 -83 15 -65 15 -86 6 -124 -7 -25 -9 -58 -6 -71 4
-14 3 -28 -2 -31 -4 -3 -49 -8 -99 -12 l-91 -7 -13 33 c-8 19 -20 39 -27 44
-8 6 -25 51 -38 100 -35 125 -42 136 -19 28 4 -22 3 -25 -5 -13 -9 11 -10 5
-5 -27 4 -29 3 -43 -4 -43 -7 0 -9 7 -5 17 4 11 3 14 -5 9 -8 -5 -12 2 -13 21
0 26 -46 178 -48 160 -1 -5 8 -43 18 -85 73 -290 80 -486 22 -692 -10 -36 -33
-115 -50 -175 -37 -130 -37 -131 -11 -145 17 -9 24 -6 45 16 16 17 25 22 26
13 1 -8 3 -30 6 -49 4 -37 -15 -110 -29 -110 -4 0 -8 3 -8 8 0 4 -10 8 -23 8
-40 3 -52 9 -57 28 -5 18 -26 -25 -80 -164 l-18 -45 55 -3 55 -3 -7 57 c-5 45
-4 55 7 52 7 -3 14 -23 16 -47 2 -31 7 -41 17 -37 8 3 15 1 17 -5 2 -5 20 -10
41 -11 20 -1 37 -5 37 -10 0 -4 13 -8 28 -8 16 0 32 -3 35 -7 4 -3 20 -8 36
-9 40 -5 214 -65 222 -77 4 -5 8 -4 11 4 3 10 18 6 61 -15 31 -15 87 -38 124
-51 79 -27 244 -94 291 -119 28 -14 32 -15 32 -1 0 16 16 20 24 6 4 -5 1 -11
-5 -13 -7 -2 14 -17 47 -32 32 -16 67 -32 77 -37 16 -9 17 79 17 1781 0 984
-3 1790 -7 1790 -5 0 -9 22 -9 48 -1 26 -9 70 -18 96 -20 59 -14 70 13 25 l21
-34 0 1363 0 1362 -1634 0 c-1473 0 -1634 -2 -1640 -16 -3 -8 -10 -12 -16 -9
-6 4 -8 11 -5 16 4 5 -446 9 -1169 9 l-1176 0 0 -3216z m4110 3186 c0 -5 -7
-10 -15 -10 -8 0 -15 5 -15 10 0 6 7 10 15 10 8 0 15 -4 15 -10z m724 -41 c-3
-5 -10 -7 -15 -3 -5 3 -7 10 -3 15 3 5 10 7 15 3 5 -3 7 -10 3 -15z m-1284
-59 c0 -5 -4 -10 -9 -10 -6 0 -13 5 -16 10 -3 6 1 10 9 10 9 0 16 -4 16 -10z
m-280 -80 c0 -5 -7 -10 -15 -10 -8 0 -15 5 -15 10 0 6 7 10 15 10 8 0 15 -4
15 -10z m-360 -230 c0 -5 -5 -10 -11 -10 -5 0 -7 5 -4 10 3 6 8 10 11 10 2 0
4 -4 4 -10z m410 -490 c0 -5 -2 -10 -4 -10 -3 0 -8 5 -11 10 -3 6 -1 10 4 10
6 0 11 -4 11 -10z m-1949 -103 c-1 -12 -15 -9 -19 4 -3 6 1 10 8 8 6 -3 11 -8
11 -12z m3419 -51 c0 -3 -4 -8 -10 -11 -5 -3 -10 -1 -10 4 0 6 5 11 10 11 6 0
10 -2 10 -4z m-15 -36 c3 -5 -1 -10 -10 -10 -9 0 -13 5 -10 10 3 6 8 10 10 10
2 0 7 -4 10 -10z m-3565 -140 c0 -5 -4 -10 -10 -10 -5 0 -10 5 -10 10 0 6 5
10 10 10 6 0 10 -4 10 -10z m3818 -36 c2 -16 -1 -23 -8 -19 -5 3 -10 18 -10
32 0 32 13 22 18 -13z m-688 -218 c0 -3 -4 -8 -10 -11 -5 -3 -10 -1 -10 4 0 6
5 11 10 11 6 0 10 -2 10 -4z m1100 -146 c0 -5 -4 -10 -10 -10 -5 0 -10 5 -10
10 0 6 5 10 10 10 6 0 10 -4 10 -10z m-470 -20 c0 -5 -4 -10 -10 -10 -5 0 -10
5 -10 10 0 6 5 10 10 10 6 0 10 -4 10 -10z m440 -70 c0 -5 -2 -10 -4 -10 -3 0
-8 5 -11 10 -3 6 -1 10 4 10 6 0 11 -4 11 -10z m89 -130 c0 -10 -3 -8 -9 5
-12 27 -12 43 0 25 5 -8 9 -22 9 -30z m-4599 -20 c0 -5 -4 -10 -10 -10 -5 0
-10 5 -10 10 0 6 5 10 10 10 6 0 10 -4 10 -10z m4455 -50 c-3 -5 -10 -10 -16
-10 -5 0 -9 5 -9 10 0 6 7 10 16 10 8 0 12 -4 9 -10z m265 -124 c0 -3 -4 -8
-10 -11 -5 -3 -10 -1 -10 4 0 6 5 11 10 11 6 0 10 -2 10 -4z m-100 -27 c0 -5
-7 -9 -15 -9 -15 0 -20 12 -9 23 8 8 24 -1 24 -14z m-1720 -9 c0 -5 -4 -10
-10 -10 -5 0 -10 5 -10 10 0 6 5 10 10 10 6 0 10 -4 10 -10z m637 -16 c-9 -9
-28 6 -21 18 4 6 10 6 17 -1 6 -6 8 -13 4 -17z m-477 -214 c0 -5 -5 -10 -11
-10 -5 0 -7 5 -4 10 3 6 8 10 11 10 2 0 4 -4 4 -10z m245 -79 c0 -8 -4 -16
-10 -18 -16 -5 -38 14 -30 26 9 16 40 9 40 -8z m1225 -16 c0 -10 -9 -14 -25
-13 -31 3 -33 15 -2 21 12 2 23 5 25 6 1 0 2 -6 2 -14z m-2040 -181 c0 -17
-22 -14 -28 4 -2 7 3 12 12 12 9 0 16 -7 16 -16z m-3320 -174 c0 -5 -4 -10
-10 -10 -5 0 -10 5 -10 10 0 6 5 10 10 10 6 0 10 -4 10 -10z m4355 -120 c3 -5
1 -10 -4 -10 -6 0 -11 5 -11 10 0 6 2 10 4 10 3 0 8 -4 11 -10z m-3185 -34 c0
-11 -19 -15 -25 -6 -3 5 1 10 9 10 9 0 16 -2 16 -4z m573 -63 c9 -9 -13 -34
-24 -27 -14 8 -11 34 4 34 8 0 17 -3 20 -7z m3447 -167 c0 -8 -4 -17 -9 -21
-12 -7 -24 12 -16 25 9 15 25 12 25 -4z m-1732 -352 c25 -10 39 -20 35 -27 -4
-6 0 -8 10 -4 10 4 44 -8 85 -29 37 -19 58 -32 47 -28 -11 4 -60 20 -109 37
-50 17 -106 41 -125 55 -40 27 -28 26 57 -4z m1412 16 c0 -5 -4 -10 -10 -10
-5 0 -10 5 -10 10 0 6 5 10 10 10 6 0 10 -4 10 -10z m-3840 -160 c0 -5 -4 -10
-10 -10 -5 0 -10 5 -10 10 0 6 5 10 10 10 6 0 10 -4 10 -10z m1290 -100 c0 -5
-4 -10 -10 -10 -5 0 -10 5 -10 10 0 6 5 10 10 10 6 0 10 -4 10 -10z m1160
-100 c0 -5 -4 -10 -9 -10 -6 0 -13 5 -16 10 -3 6 1 10 9 10 9 0 16 -4 16 -10z
m130 -12 c0 -13 -23 -5 -28 10 -2 7 2 10 12 6 9 -3 16 -11 16 -16z m30 1 c0
-5 -4 -9 -10 -9 -5 0 -10 7 -10 16 0 8 5 12 10 9 6 -3 10 -10 10 -16z m45 -37
c-3 -3 -11 0 -18 7 -9 10 -8 11 6 5 10 -3 15 -9 12 -12z m310 -2 c3 -5 2 -10
-4 -10 -5 0 -13 5 -16 10 -3 6 -2 10 4 10 5 0 13 -4 16 -10z m-2478 -42 c2
-18 0 -20 -7 -8 -12 18 -13 30 -2 30 4 0 9 -10 9 -22z m1433 -109 c0 -6 7 -9
15 -5 8 3 15 2 15 -3 0 -8 31 -22 55 -25 21 -3 57 -35 51 -45 -9 -14 26 -1 36
13 4 6 10 3 14 -7 6 -16 10 -15 40 14 32 31 34 31 34 11 0 -25 3 -26 31 -12
13 7 19 7 19 0 0 -5 6 -10 14 -10 8 0 21 -9 29 -20 13 -19 16 -19 30 -5 20 19
27 19 27 0 0 -8 9 -15 21 -15 11 0 17 -4 14 -10 -3 -5 3 -10 14 -10 14 0 19
-5 15 -15 -4 -10 0 -15 11 -15 12 0 15 -6 10 -22 -5 -20 -4 -21 5 -5 13 21 30
22 30 2 0 -7 7 -18 15 -22 16 -9 23 -67 11 -98 -7 -19 -7 -19 7 -3 8 10 17 15
20 12 3 -3 20 1 38 10 18 9 34 14 37 12 2 -3 -1 -21 -8 -41 -7 -20 -10 -38 -7
-41 10 -10 47 -12 47 -3 0 6 6 7 13 2 6 -4 14 -8 17 -8 17 -2 44 -26 35 -32
-25 -20 -15 -49 22 -66 22 -10 39 -13 41 -7 5 13 32 13 32 0 0 -5 -10 -20 -22
-32 -17 -17 -20 -18 -15 -4 5 13 3 17 -10 14 -9 -2 -18 -10 -21 -18 -3 -8 -1
-12 3 -8 4 4 14 1 22 -7 15 -16 56 -11 80 8 7 5 22 7 33 4 17 -4 19 -1 14 19
-5 18 -2 24 10 24 24 0 19 18 -11 46 -31 28 -78 57 -56 34 9 -10 7 -17 -13
-33 -14 -10 -28 -17 -31 -13 -3 3 -12 -2 -19 -12 -7 -9 -15 -14 -19 -10 -8 8
30 48 46 48 6 0 4 7 -5 15 -8 8 -28 15 -44 15 -16 0 -35 7 -42 15 -16 19 -5
34 12 17 7 -7 19 -12 27 -12 12 1 10 5 -7 20 -25 21 -20 27 35 46 27 9 37 8
62 -7 16 -9 31 -16 33 -14 2 3 10 -11 17 -30 7 -19 17 -35 22 -35 6 0 9 -6 7
-12 -3 -7 4 -21 14 -32 15 -16 21 -18 43 -8 33 15 35 15 35 -3 0 -8 -9 -15
-19 -15 -16 0 -19 -6 -17 -35 2 -20 7 -39 11 -43 5 -4 5 1 2 11 -4 11 -1 20 8
23 7 3 11 12 8 20 -3 9 1 14 12 14 12 0 15 5 11 16 -5 12 -2 15 10 10 28 -11
75 16 81 46 3 17 10 25 19 21 24 -9 16 -47 -21 -99 -19 -27 -35 -54 -35 -60 0
-6 -19 -51 -43 -100 -68 -140 -74 -165 -52 -227 10 -29 24 -59 31 -68 17 -20
18 -32 2 -24 -7 4 -5 0 5 -8 12 -10 15 -17 7 -22 -8 -5 -6 -13 5 -25 9 -10 14
-24 10 -30 -4 -6 -1 -18 6 -26 10 -12 10 -17 1 -23 -9 -5 -3 -16 20 -34 17
-15 26 -27 19 -27 -7 0 -9 -5 -6 -10 4 -6 1 -17 -5 -25 -10 -12 -9 -20 4 -40
9 -14 12 -25 6 -25 -16 0 -12 -30 6 -37 9 -3 13 -12 9 -21 -3 -8 0 -19 7 -24
9 -6 5 -7 -9 -3 -19 5 -23 2 -23 -18 0 -26 -32 -43 -54 -29 -6 3 -16 7 -22 8
-6 1 -35 18 -64 38 -29 20 -59 36 -67 36 -25 0 -4 -18 57 -51 53 -28 79 -59
50 -59 -5 0 -10 -16 -10 -35 0 -19 4 -35 10 -35 5 0 7 -13 5 -29 -2 -22 1 -30
16 -34 22 -6 26 -27 4 -27 -18 0 -20 -17 -3 -22 9 -3 9 -6 1 -11 -6 -4 -17 -1
-25 6 -18 18 -76 38 -83 28 -10 -16 -88 -20 -116 -5 -37 19 -41 18 -37 -8 2
-14 14 -25 33 -31 17 -5 38 -16 48 -25 43 -38 -3 -44 -57 -7 -20 14 -41 25
-46 25 -6 0 -10 4 -10 8 0 5 -11 15 -25 22 -14 7 -25 19 -25 26 0 6 -9 14 -20
17 -25 6 -26 -2 -3 -19 10 -7 15 -15 11 -19 -4 -4 -15 3 -25 14 -9 12 -23 21
-30 21 -8 0 -18 10 -24 23 -19 42 -38 72 -55 84 -10 7 -13 17 -8 25 6 11 5 11
-8 0 -9 -8 -14 -20 -11 -28 7 -19 -36 -19 -82 0 -47 20 -44 5 4 -28 42 -29
107 -96 93 -96 -4 0 -18 7 -30 16 -29 20 -29 1 1 -23 27 -21 48 -51 26 -38 -7
5 -22 17 -34 26 -56 49 -141 107 -149 102 -5 -3 -2 -11 7 -18 9 -7 14 -15 10
-18 -10 -11 -25 -8 -18 2 8 13 -30 32 -48 25 -8 -3 -18 -1 -22 5 -3 6 -11 11
-16 11 -6 0 3 -19 19 -42 34 -52 50 -81 27 -53 -50 62 -57 68 -66 54 -6 -10
-9 -11 -9 -1 0 6 -5 12 -10 12 -6 0 -5 -8 2 -20 7 -10 15 -15 18 -9 4 5 17 -2
30 -16 13 -14 20 -25 15 -25 -4 0 -14 8 -21 17 -21 30 -28 6 -7 -24 20 -28 36
-63 29 -63 -2 0 -22 29 -45 64 -45 68 -62 81 -80 63 -8 -8 -11 -7 -11 3 0 10
-3 11 -11 3 -8 -8 -6 -19 5 -42 17 -32 30 -43 20 -16 -4 9 0 15 10 15 9 0 16
-6 16 -12 0 -10 2 -10 9 0 7 11 9 11 14 -2 4 -9 1 -15 -5 -13 -7 1 -13 -9 -15
-23 -3 -33 18 -114 26 -101 4 6 7 -6 7 -27 0 -20 3 -59 8 -87 5 -36 4 -46 -3
-35 -6 8 -11 27 -11 41 0 39 -27 97 -50 109 -23 12 -23 11 -9 -50 18 -77 26
-139 17 -134 -4 3 -8 11 -8 18 0 18 -33 15 -42 -4 -5 -12 -7 -11 -7 4 -1 12
-6 16 -16 12 -10 -3 -23 6 -37 28 -21 32 -43 39 -78 26 -3 -2 -9 -2 -14 -1 -5
1 -6 -10 -4 -24 4 -19 1 -25 -12 -25 -19 0 -100 71 -100 87 0 5 13 23 29 38
23 24 26 31 15 42 -7 7 -20 10 -28 7 -12 -5 -16 0 -16 17 0 12 -3 20 -6 16 -3
-3 -17 7 -31 24 -14 16 -34 34 -46 40 -18 10 -19 9 -14 -10 4 -18 3 -20 -9
-10 -7 6 -21 8 -30 5 -10 -4 -22 1 -30 11 -12 17 -13 17 -14 -4 0 -12 5 -25
10 -28 6 -3 10 -12 10 -18 0 -7 -8 0 -18 16 -9 15 -22 25 -29 22 -9 -3 -13 8
-13 35 0 41 -15 54 -27 23 -6 -15 -7 -15 -14 3 -14 35 -10 74 7 74 12 0 15 6
10 25 -4 14 -2 25 4 25 5 0 10 -7 10 -15 0 -18 16 -20 23 -2 3 7 6 5 6 -5 1
-21 17 -24 24 -5 4 8 6 7 6 -3 1 -17 42 -22 52 -8 7 10 41 -1 34 -11 -4 -7 70
-25 150 -36 17 -3 36 -12 43 -22 9 -13 12 -14 12 -2 0 9 3 10 8 3 4 -6 15 -11
24 -11 16 0 16 3 -3 33 -11 19 -17 39 -13 45 4 8 3 9 -4 5 -7 -4 -20 9 -32 31
-11 21 -24 45 -29 53 -5 8 -13 24 -16 35 l-7 20 -8 -20 c-8 -18 -9 -17 -9 7
-1 30 -17 44 -43 40 -10 -2 -18 3 -18 11 0 15 -45 57 -61 57 -15 0 -73 60 -65
67 3 3 17 -2 31 -11 14 -9 25 -14 25 -11 0 3 10 0 23 -6 17 -9 15 -5 -8 17
-16 15 -41 29 -54 29 -14 1 -30 10 -35 21 -6 10 -12 21 -14 23 -1 3 -8 -4 -16
-14 -13 -18 -14 -18 -21 4 -5 16 -2 28 8 39 14 13 13 18 -10 47 -24 30 -41
121 -20 108 4 -3 3 4 -5 16 -7 12 -23 21 -38 21 -14 0 -31 9 -37 20 -7 11 -27
23 -45 28 l-33 9 39 17 c22 9 36 19 33 23 -4 3 -14 0 -23 -8 -14 -11 -18 -11
-29 4 -16 22 -26 22 -18 0 5 -12 2 -15 -10 -10 -9 3 -19 1 -23 -5 -4 -7 -3 -8
4 -4 15 9 15 1 0 -24 -12 -18 -13 -18 -24 8 -9 19 -13 22 -13 10 -1 -10 -9
-18 -18 -18 -11 0 -14 -3 -7 -8 5 -4 20 -29 32 -55 13 -26 29 -50 37 -53 8 -4
15 -12 15 -19 0 -7 8 -15 18 -17 9 -3 26 -22 37 -44 11 -21 26 -43 33 -47 18
-12 14 -39 -13 -71 -22 -28 -30 -18 -11 13 7 11 5 13 -7 8 -10 -3 -17 -2 -17
4 0 6 -9 5 -22 -2 -20 -11 -21 -10 -10 3 10 13 9 15 -12 13 -13 -2 -33 -8 -44
-14 -33 -17 -39 -12 -12 9 l25 20 -35 -6 c-19 -3 -40 -7 -47 -9 -7 -2 -15 0
-18 4 -2 5 18 18 45 30 28 12 50 23 50 26 0 9 -50 -3 -72 -17 -12 -8 -36 -18
-53 -22 -16 -3 -41 -9 -55 -12 -14 -4 -45 -7 -70 -8 -67 -4 -72 -5 -65 -16 9
-14 109 -12 123 2 9 9 15 9 23 1 7 -7 3 -12 -16 -17 -31 -8 -258 -26 -264 -21
-1 2 23 17 55 34 33 17 48 29 34 26 -92 -17 -156 -25 -230 -30 -47 -2 -80 -2
-75 0 19 8 309 45 354 45 91 0 28 11 -105 19 -125 7 -130 8 -50 10 71 1 87 4
83 15 -3 8 2 16 15 19 11 3 17 10 14 16 -4 6 13 13 40 17 36 5 43 9 30 16 -9
5 -26 6 -37 3 -15 -5 -19 -4 -14 5 4 7 2 10 -6 9 -8 -2 -32 5 -54 15 -22 10
-78 31 -125 47 -47 15 -79 28 -71 28 8 1 62 -14 120 -33 136 -43 164 -50 156
-36 -3 5 2 10 12 10 10 1 -7 14 -37 30 -64 34 -61 38 7 12 40 -15 52 -17 71
-6 13 6 19 15 14 18 -6 3 -13 2 -17 -3 -7 -13 -35 -3 -32 12 1 6 -7 13 -18 15
-11 2 -24 8 -29 12 -5 5 0 7 11 4 14 -4 20 0 20 11 0 12 -7 15 -26 11 -22 -5
-23 -5 -8 5 10 6 29 8 43 5 35 -9 29 1 -13 21 -21 9 -44 23 -51 30 -7 7 -20
13 -28 13 -22 0 -74 29 -74 41 0 6 -16 30 -35 53 -19 24 -35 49 -35 57 0 21
72 79 99 79 17 0 22 -4 17 -17 -8 -21 11 -80 38 -116 36 -49 91 -70 175 -69
41 0 79 6 84 11 8 8 7 11 -1 11 -7 0 -12 4 -12 9 0 5 18 2 41 -5 22 -8 45 -12
50 -9 5 4 9 2 9 -4 0 -5 -8 -14 -17 -20 -10 -5 -15 -13 -11 -17 7 -7 80 42 86
58 2 5 7 6 11 3 5 -2 14 13 21 35 15 47 62 95 84 87 17 -7 36 20 36 50 0 10 7
31 15 47 14 27 14 31 0 38 -8 5 -15 19 -15 31 0 26 -10 41 -28 45 -7 1 -20 4
-30 6 -9 2 -33 10 -52 19 -21 9 -39 12 -44 7 -6 -6 -15 -2 -22 8 -8 10 -13 12
-14 5 0 -7 -7 -13 -15 -13 -18 0 -20 -17 -2 -23 6 -2 9 -7 6 -11 -3 -3 -15 3
-27 14 -12 12 -22 16 -22 9 0 -8 -5 -7 -17 2 -9 8 -26 15 -37 15 -12 1 -49 3
-83 4 -34 2 -67 6 -73 10 -13 8 40 43 83 54 15 3 27 11 27 18 0 6 7 16 16 23
13 9 14 16 5 33 -10 18 -9 21 4 16 13 -5 14 -2 5 21 -6 15 -8 30 -5 33 3 3 5
1 5 -5 0 -10 36 -26 53 -24 4 1 7 -4 7 -11 0 -6 2 -9 5 -6 3 3 -4 23 -16 44
l-22 39 37 -40 c21 -22 34 -34 30 -26 -5 11 -2 13 15 8 17 -4 21 -2 16 12 -4
14 2 17 45 15 44 -1 50 1 50 20 1 20 1 20 15 2 7 -10 18 -15 23 -12 6 3 22 2
36 -4 22 -8 30 -6 49 13 12 12 25 22 29 22 3 0 10 3 14 8 13 13 54 8 60 -8 4
-8 13 -15 20 -15 8 0 28 -9 43 -21 32 -23 80 -20 102 8 15 17 58 37 76 34 6
-1 14 3 18 9 8 13 25 13 25 -1z m-1140 -19 c-11 -20 -30 -28 -30 -12 0 11 22
32 32 32 5 0 4 -9 -2 -20z m-653 -72 c2 -20 -1 -39 -7 -43 -6 -4 -10 6 -10 24
0 16 -3 37 -7 47 -4 11 -2 15 7 12 7 -2 15 -20 17 -40z m4124 -21 c-1 -12 -15
-9 -19 4 -3 6 1 10 8 8 6 -3 11 -8 11 -12z m-4171 -64 c53 -23 95 -53 74 -53
-5 0 -19 7 -31 15 -19 14 -145 47 -218 58 -16 3 4 5 45 4 55 -1 90 -7 130 -24z
m2443 -54 c-6 -6 -9 -18 -6 -25 3 -8 0 -14 -6 -14 -6 0 -11 6 -11 13 0 13 19
37 29 37 3 0 0 -5 -6 -11z m-1476 -45 c-3 -3 -12 -4 -19 -1 -8 3 -5 6 6 6 11
1 17 -2 13 -5z m1603 -20 c0 -8 -4 -14 -9 -14 -11 0 -22 26 -14 34 9 9 23 -3
23 -20z m-49 -32 c-6 -2 -9 -8 -5 -13 3 -5 0 -9 -5 -9 -15 0 -14 16 2 40 11
19 12 19 16 3 2 -9 -2 -19 -8 -21z m-1631 4 c0 -2 -7 -7 -16 -10 -8 -3 -12 -2
-9 4 6 10 25 14 25 6z m-1870 -40 c0 -11 -19 -15 -25 -6 -3 5 1 10 9 10 9 0
16 -2 16 -4z m2111 -56 c5 0 9 -3 9 -7 0 -5 -20 -8 -45 -8 -25 0 -45 1 -45 3
0 7 46 20 58 16 8 -2 18 -4 23 -4z m2749 -20 c0 -5 -4 -10 -10 -10 -5 0 -10 5
-10 10 0 6 5 10 10 10 6 0 10 -4 10 -10z m-1154 -30 c0 -11 -5 -21 -12 -24 -9
-3 -13 27 -5 42 5 10 17 -2 17 -18z m1178 -41 c-6 -11 -24 -2 -24 11 0 5 7 7
15 4 8 -4 12 -10 9 -15z m-2704 -34 c0 -14 -4 -25 -10 -25 -5 0 -10 11 -10 25
0 14 5 25 10 25 6 0 10 -11 10 -25z m2277 -247 c-3 -8 -6 -5 -6 6 -1 11 2 17
5 13 3 -3 4 -12 1 -19z m330 -50 c-3 -8 -6 -5 -6 6 -1 11 2 17 5 13 3 -3 4
-12 1 -19z m-309 -13 c-3 -3 -9 2 -12 12 -6 14 -5 15 5 6 7 -7 10 -15 7 -18z
m22 -25 c0 -5 -4 -10 -10 -10 -5 0 -10 5 -10 10 0 6 5 10 10 10 6 0 10 -4 10
-10z m-2086 -15 c-4 -8 -10 -12 -15 -9 -11 6 -2 24 11 24 5 0 7 -7 4 -15z
m2076 -120 c0 -8 -4 -15 -10 -15 -5 0 -10 7 -10 15 0 8 5 15 10 15 6 0 10 -7
10 -15z m-171 -105 c1 -13 0 -13 -9 0 -5 8 -9 26 -9 40 l1 25 8 -25 c4 -14 8
-32 9 -40z m-2059 -5 c0 6 5 3 10 -5 9 -13 12 -13 21 3 5 9 14 17 19 17 19 0
10 -16 -20 -38 -20 -15 -28 -18 -24 -7 4 8 1 15 -5 15 -6 0 -11 -4 -11 -10 0
-5 -5 -10 -11 -10 -8 0 -8 5 1 15 8 10 9 15 2 15 -6 0 -16 -9 -22 -20 -6 -11
-16 -20 -22 -20 -7 0 1 14 17 30 21 22 31 27 37 18 4 -7 8 -8 8 -3z m-120 1
c0 -2 -7 -7 -16 -10 -8 -3 -12 -2 -9 4 6 10 25 14 25 6z m-767 -23 c-7 -2 -19
-2 -25 0 -7 3 -2 5 12 5 14 0 19 -2 13 -5z m-90 -10 c-7 -2 -19 -2 -25 0 -7 3
-2 5 12 5 14 0 19 -2 13 -5z m879 -3 c27 0 -5 -13 -39 -16 -36 -4 -37 -3 -18
11 11 9 26 13 33 10 8 -3 19 -5 24 -5z m-307 -64 c-72 -34 -153 -75 -180 -91
-28 -16 -45 -23 -40 -17 14 16 189 110 265 143 114 50 89 31 -45 -35z m215 54
c0 -5 -5 -10 -11 -10 -5 0 -7 5 -4 10 3 6 8 10 11 10 2 0 4 -4 4 -10z m-310
-60 c-8 -5 -19 -10 -25 -10 -5 0 -3 5 5 10 8 5 20 10 25 10 6 0 3 -5 -5 -10z
m260 -44 c0 -2 -8 -10 -17 -17 -16 -13 -17 -12 -4 4 13 16 21 21 21 13z m2431
-29 c-6 -6 -11 -19 -11 -28 0 -10 -5 -21 -11 -25 -8 -4 -9 1 -4 17 11 39 29
72 33 59 2 -6 -1 -17 -7 -23z m-2500 -35 c-34 -44 -78 -83 -52 -47 19 26 74
85 79 85 2 0 -10 -17 -27 -38z m-62 -19 c-63 -69 -250 -255 -209 -208 43 50
243 255 249 255 2 0 -16 -21 -40 -47z m-1209 -3 c0 -5 -2 -10 -4 -10 -3 0 -8
5 -11 10 -3 6 -1 10 4 10 6 0 11 -4 11 -10z m3765 -116 c-3 -24 -9 -45 -13
-48 -14 -8 -37 19 -40 47 -2 22 2 30 17 34 11 3 24 15 28 27 6 19 7 19 11 2 2
-10 1 -38 -3 -62z m-1085 -14 c0 -5 -2 -10 -4 -10 -3 0 -8 5 -11 10 -3 6 -1
10 4 10 6 0 11 -4 11 -10z m-2830 -10 c0 -5 -4 -10 -10 -10 -5 0 -10 5 -10 10
0 6 5 10 10 10 6 0 10 -4 10 -10z m2870 -45 c-7 -9 -15 -13 -17 -11 -7 7 7 26
19 26 6 0 6 -6 -2 -15z m-853 -87 c-3 -8 -6 -5 -6 6 -1 11 2 17 5 13 3 -3 4
-12 1 -19z m861 -13 c-3 -3 -9 2 -12 12 -6 14 -5 15 5 6 7 -7 10 -15 7 -18z
m-252 -82 c-3 -4 -13 10 -21 30 -21 51 -18 59 6 14 11 -22 18 -41 15 -44z
m-476 -75 c0 -5 -8 -4 -18 1 -13 7 -23 6 -30 -1 -9 -9 -12 -8 -12 6 0 9 4 15
9 11 5 -3 13 -1 16 5 7 12 35 -5 35 -22z m1760 -108 c0 -5 -7 -10 -15 -10 -8
0 -15 5 -15 10 0 6 7 10 15 10 8 0 15 -4 15 -10z m985 -80 c3 -5 1 -10 -4 -10
-6 0 -11 5 -11 10 0 6 2 10 4 10 3 0 8 -4 11 -10z m-565 -90 c0 -5 -2 -10 -4
-10 -3 0 -8 5 -11 10 -3 6 -1 10 4 10 6 0 11 -4 11 -10z m-701 -71 c-25 -50
-113 -141 -180 -187 -70 -47 -233 -125 -336 -161 -147 -50 -483 -124 -498
-109 -3 2 32 10 78 17 141 21 451 107 441 122 -3 5 1 6 9 3 8 -3 18 -1 22 5 3
6 14 11 23 11 9 0 71 27 139 61 105 51 135 72 203 138 44 42 87 94 95 115 9
21 18 36 21 33 3 -3 -4 -24 -17 -48z m-4139 -59 c0 -5 -4 -10 -10 -10 -5 0
-10 5 -10 10 0 6 5 10 10 10 6 0 10 -4 10 -10z m895 -20 c-3 -5 -12 -10 -18
-10 -7 0 -6 4 3 10 19 12 23 12 15 0z m-180 -30 c-3 -5 -12 -10 -18 -10 -7 0
-6 4 3 10 19 12 23 12 15 0z m-138 -16 c-3 -3 -12 -4 -19 -1 -8 3 -5 6 6 6 11
1 17 -2 13 -5z m-19 -21 c-10 -2 -28 -2 -40 0 -13 2 -5 4 17 4 22 1 32 -1 23
-4z m-28 -23 c0 -5 -2 -10 -4 -10 -2 0 -12 -3 -20 -6 -12 -5 -15 -2 -10 10 7
17 34 22 34 6z m1959 -6 c10 -9 -95 -3 -109 6 -9 6 6 7 45 3 33 -3 62 -7 64
-9z m-2149 2 c0 -6 -137 -96 -147 -96 -15 0 61 60 102 80 45 21 45 21 45 16z
m2380 -16 c0 -12 -77 -12 -105 0 -14 6 -2 9 43 9 35 1 62 -3 62 -9z m-2260
-10 c0 -5 -5 -10 -11 -10 -5 0 -7 5 -4 10 3 6 8 10 11 10 2 0 4 -4 4 -10z
m225 0 c3 -5 -1 -10 -10 -10 -9 0 -13 5 -10 10 3 6 8 10 10 10 2 0 7 -4 10
-10z m-758 -136 c-3 -3 -12 -4 -19 -1 -8 3 -5 6 6 6 11 1 17 -2 13 -5z m413 1
c0 -6 -73 -25 -78 -20 -2 2 11 8 29 14 41 11 49 12 49 6z m2753 -132 c-7 -2
-19 -2 -25 0 -7 3 -2 5 12 5 14 0 19 -2 13 -5z m-616 -69 c-3 -3 -12 -4 -19
-1 -8 3 -5 6 6 6 11 1 17 -2 13 -5z m270 -59 c0 -8 -4 -12 -9 -9 -4 3 -8 9 -8
15 0 5 4 9 8 9 5 0 9 -7 9 -15z m-47 -24 c0 -5 10 -12 23 -14 12 -2 0 -4 -28
-4 -27 0 -39 2 -26 4 19 4 21 7 10 14 -11 7 -11 9 4 9 9 0 17 -4 17 -9z m373
-178 c-7 -2 -21 -2 -30 0 -10 3 -4 5 12 5 17 0 24 -2 18 -5z m-712 -70 c13
-15 12 -15 -8 -4 -24 12 -29 21 -14 21 5 0 15 -7 22 -17z m64 -21 c-3 -3 -16
5 -28 17 l-22 23 28 -17 c15 -10 25 -20 22 -23z m41 13 c10 -8 14 -15 8 -15
-5 0 -19 7 -30 15 -10 8 -14 15 -8 15 5 0 19 -7 30 -15z"/>
<path d="M3230 2651 c-139 -45 -280 -216 -230 -277 13 -15 86 -54 102 -54 5 0
0 10 -12 22 -19 21 -25 52 -20 107 3 33 38 80 75 98 l30 16 -23 -26 -24 -25
48 24 c26 13 60 24 76 24 58 0 147 -54 174 -105 15 -28 9 -81 -12 -113 -9 -13
-33 -32 -55 -41 -21 -9 -39 -19 -39 -23 0 -20 86 2 126 32 34 25 46 87 29 149
-8 30 -11 67 -8 82 4 24 1 30 -20 38 -14 5 -31 18 -39 28 -7 10 -24 24 -36 31
-30 17 -109 24 -142 13z"/>
<path d="M3982 2548 c-16 -16 -15 -28 3 -28 8 0 15 -5 15 -12 0 -6 2 -9 5 -7
2 3 1 17 -3 32 -6 22 -10 25 -20 15z"/>
<path d="M3207 2525 c-53 -15 -64 -21 -53 -32 4 -4 11 -1 16 7 13 22 23 5 11
-18 -6 -12 -11 -36 -12 -54 -1 -32 -1 -32 -15 12 l-14 45 6 -52 c2 -30 1 -53
-5 -53 -12 0 -2 -36 14 -50 9 -7 16 -6 25 5 10 13 9 15 -9 15 -11 0 -21 4 -21
9 0 5 6 8 13 7 23 -3 38 -18 33 -32 -3 -8 -2 -13 2 -12 4 2 19 -6 34 -16 26
-17 28 -17 51 0 39 30 59 64 65 110 7 64 -3 89 -42 108 -39 18 -36 18 -99 1z"/>
<path d="M4099 2502 c-8 -11 -18 -21 -24 -23 -5 -2 -9 -9 -9 -16 1 -6 -5 -9
-14 -5 -11 4 -14 1 -9 -11 3 -9 2 -17 -4 -17 -14 0 -33 -20 -44 -45 -14 -34
-14 -45 1 -45 21 0 54 37 54 61 0 11 16 41 36 65 20 25 34 47 31 50 -3 3 -11
-3 -18 -14z"/>
<path d="M3960 2434 c0 -9 5 -14 12 -12 18 6 21 28 4 28 -9 0 -16 -7 -16 -16z"/>
<path d="M3935 2420 c3 -5 8 -10 11 -10 2 0 4 5 4 10 0 6 -5 10 -11 10 -5 0
-7 -4 -4 -10z"/>
<path d="M3190 2300 c0 -9 41 -30 58 -30 9 1 -41 39 -50 40 -5 0 -8 -5 -8 -10z"/>
<path d="M2150 2250 c20 -13 43 -13 35 0 -3 6 -16 10 -28 10 -18 0 -19 -2 -7
-10z"/>
<path d="M2693 2158 c-14 -18 -23 -58 -13 -58 4 0 11 -10 15 -22 4 -14 8 -18
12 -10 2 6 11 12 19 12 8 0 14 7 14 14 0 10 22 21 60 32 33 9 60 21 60 25 0
11 2 11 -40 -1 -26 -7 -39 -6 -57 5 -27 18 -57 19 -70 3z"/>
<path d="M2305 2080 c-19 -8 -19 -9 2 -9 12 -1 25 4 28 9 7 12 -2 12 -30 0z"/>
<path d="M2209 2052 c-1 -4 -1 -10 0 -14 2 -12 -14 -9 -27 4 -9 9 -15 9 -24 0
-7 -7 -21 -12 -32 -12 -10 0 -17 -3 -13 -6 3 -3 51 -8 106 -10 78 -4 101 -2
101 8 0 10 3 10 9 -1 7 -12 14 -10 36 8 l28 21 -24 1 c-92 6 -159 6 -160 1z"/>
<path d="M2671 1974 c0 -11 3 -14 6 -6 3 7 2 16 -1 19 -3 4 -6 -2 -5 -13z"/>
<path d="M2722 1958 c3 -7 15 -14 29 -16 24 -4 24 -3 4 12 -24 19 -38 20 -33
4z"/>
<path d="M2830 1900 c0 -8 22 -30 30 -30 3 0 6 8 6 18 0 10 -8 18 -18 18 -10
0 -18 -3 -18 -6z"/>
<path d="M3030 1636 c0 -8 5 -18 10 -21 6 -3 10 1 10 9 0 8 -4 18 -10 21 -5 3
-10 -1 -10 -9z"/>
<path d="M3050 1591 c0 -22 32 -81 40 -76 6 3 10 1 10 -6 0 -7 3 -10 6 -6 9 8
-27 85 -43 91 -7 3 -13 2 -13 -3z"/>
<path d="M3310 1580 c0 -5 5 -10 11 -10 5 0 7 5 4 10 -3 6 -8 10 -11 10 -2 0
-4 -4 -4 -10z"/>
<path d="M2630 1566 c0 -8 5 -18 10 -21 6 -3 10 1 10 9 0 8 -4 18 -10 21 -5 3
-10 -1 -10 -9z"/>
<path d="M3111 1565 c0 -5 6 -21 14 -35 8 -14 14 -20 14 -15 0 6 -6 21 -14 35
-8 14 -14 21 -14 15z"/>
<path d="M3470 1551 c0 -5 7 -12 16 -15 14 -5 15 -4 4 9 -14 17 -20 19 -20 6z"/>
<path d="M2760 1520 c-9 -6 -10 -10 -3 -10 6 0 15 5 18 10 8 12 4 12 -15 0z"/>
<path d="M3133 1329 c4 -13 7 -34 7 -46 0 -18 5 -22 23 -19 12 3 23 5 23 5 1
1 -4 18 -11 39 -15 42 -52 61 -42 21z"/>
<path d="M2920 1286 c0 -2 7 -9 15 -16 9 -7 15 -8 15 -2 0 5 -7 12 -15 16 -8
3 -15 4 -15 2z"/>
<path d="M2788 3902 c-40 -2 -68 -7 -68 -14 0 -6 9 -8 23 -4 12 3 88 6 170 6
81 0 147 3 147 8 0 7 -150 10 -272 4z"/>
<path d="M2608 3893 c17 -2 47 -2 65 0 17 2 3 4 -33 4 -36 0 -50 -2 -32 -4z"/>
<path d="M3540 3895 c0 -7 101 -57 106 -53 2 2 -21 16 -51 31 -30 15 -55 25
-55 22z"/>
<path d="M3288 3883 c7 -3 16 -2 19 1 4 3 -2 6 -13 5 -11 0 -14 -3 -6 -6z"/>
<path d="M2217 3833 c-16 -8 -27 -17 -24 -19 7 -7 57 18 57 28 0 4 -1 8 -2 7
-2 -1 -16 -8 -31 -16z"/>
<path d="M3720 3664 c121 -52 137 -60 280 -126 58 -27 116 -59 130 -71 14 -12
9 -5 -10 15 -37 39 -279 158 -415 204 -106 36 -101 28 15 -22z"/>
<path d="M4175 3420 c10 -11 20 -20 23 -20 3 0 -3 9 -13 20 -10 11 -20 20 -23
20 -3 0 3 -9 13 -20z"/>
<path d="M4324 3265 c144 -158 182 -196 138 -140 -46 58 -192 216 -227 245
-16 14 24 -34 89 -105z"/>
<path d="M4039 3291 c6 -10 25 -31 43 -46 18 -15 52 -45 76 -67 23 -21 42 -36
42 -32 0 7 -161 164 -168 164 -1 0 2 -9 7 -19z"/>
<path d="M4375 3280 c21 -24 26 -25 19 -6 -3 8 -13 17 -22 21 -13 5 -13 2 3
-15z"/>
<path d="M4285 3060 c79 -80 115 -109 59 -48 -75 82 -122 128 -130 128 -5 0
27 -36 71 -80z"/>
<path d="M4075 3048 c98 -83 213 -207 261 -283 68 -106 79 -119 48 -55 -27 54
-95 153 -114 165 -6 3 -7 12 -4 18 4 7 4 9 0 6 -4 -4 -28 16 -54 43 -49 53
-164 148 -178 148 -5 0 14 -19 41 -42z"/>
<path d="M4385 2950 c10 -11 20 -20 22 -20 2 0 -2 9 -9 20 -7 11 -17 20 -22
20 -5 0 -1 -9 9 -20z"/>
<path d="M4296 2889 c21 -25 41 -44 44 -42 2 2 -16 23 -40 46 l-44 42 40 -46z"/>
<path d="M4350 2826 c0 -2 8 -10 18 -17 15 -13 16 -12 3 4 -13 16 -21 21 -21
13z"/>
<path d="M4655 2766 c-61 -12 -116 -25 -122 -29 -12 -8 -4 -50 16 -84 9 -14
11 -8 9 31 l-3 49 90 18 c50 10 100 18 112 18 25 1 62 -31 87 -74 l17 -30 -6
29 c-4 17 -13 45 -20 63 -17 40 -25 40 -180 9z"/>
<path d="M4503 2408 c10 -29 87 -448 94 -513 l7 -70 6 45 c8 49 4 171 -6 210
-3 14 -7 54 -9 90 -2 36 -8 79 -14 95 -12 33 -12 36 4 -82 3 -21 -6 3 -19 52
-28 104 -56 185 -63 185 -3 0 -3 -6 0 -12z"/>
<path d="M4561 2314 c0 -11 3 -14 6 -6 3 7 2 16 -1 19 -3 4 -6 -2 -5 -13z"/>
<path d="M4448 778 c-2 -95 1 -138 15 -188 10 -36 27 -105 38 -155 16 -76 28
-102 74 -171 31 -45 94 -123 141 -173 l86 -91 419 0 419 0 0 254 c0 167 -4
257 -11 261 -19 12 -244 65 -319 75 -41 5 -135 11 -207 12 -124 3 -151 8 -120
22 12 6 -9 2 -70 -14 -35 -8 -46 3 -15 15 24 10 50 13 172 18 58 3 113 8 122
12 27 11 268 -44 353 -80 54 -22 95 -28 95 -13 0 8 -37 26 -92 45 -51 18 -131
46 -178 64 -47 17 -107 35 -135 40 -27 4 -83 15 -124 24 -41 9 -80 14 -88 11
-8 -3 -12 -2 -9 3 7 10 -41 21 -93 21 -20 0 -47 8 -61 17 -21 15 -23 15 -17 1
5 -14 1 -15 -23 -8 -16 5 -34 11 -40 15 -5 3 -10 1 -10 -4 0 -6 -10 -11 -22
-11 -17 0 -19 3 -9 9 14 9 -19 16 -127 27 -28 3 -50 10 -46 15 3 5 -3 9 -13 9
-11 -1 -31 -22 -51 -53 l-32 -52 2 45 c3 72 -1 120 -11 120 -6 0 -11 -55 -13
-122z m576 -89 c8 -9 2 -10 -24 -4 -19 4 -62 11 -95 15 -55 8 -53 9 24 5 47
-3 89 -10 95 -16z m249 4 c-7 -2 -19 -2 -25 0 -7 3 -2 5 12 5 14 0 19 -2 13
-5z m-138 -23 c3 -5 1 -10 -4 -10 -6 0 -11 5 -11 10 0 6 2 10 4 10 3 0 8 -4
11 -10z m-305 -50 c0 -5 -4 -10 -10 -10 -5 0 -10 5 -10 10 0 6 5 10 10 10 6 0
10 -4 10 -10z"/>
<path d="M1238 813 c7 -3 16 -2 19 1 4 3 -2 6 -13 5 -11 0 -14 -3 -6 -6z"/>
<path d="M1358 803 c6 -2 18 -2 25 0 6 3 1 5 -13 5 -14 0 -19 -2 -12 -5z"/>
<path d="M4316 704 c-4 -9 -4 -19 -1 -22 2 -3 7 3 11 12 4 9 4 19 1 22 -2 3
-7 -3 -11 -12z"/>
<path d="M4115 560 c-3 -6 1 -7 9 -4 18 7 21 14 7 14 -6 0 -13 -4 -16 -10z"/>
<path d="M3960 490 c-8 -5 -10 -10 -5 -10 6 0 17 5 25 10 8 5 11 10 5 10 -5 0
-17 -5 -25 -10z"/>
<path d="M3778 423 c7 -3 16 -2 19 1 4 3 -2 6 -13 5 -11 0 -14 -3 -6 -6z"/>
<path d="M3738 413 c7 -3 16 -2 19 1 4 3 -2 6 -13 5 -11 0 -14 -3 -6 -6z"/>
<path d="M3668 393 c7 -3 16 -2 19 1 4 3 -2 6 -13 5 -11 0 -14 -3 -6 -6z"/>
<path d="M3628 383 c7 -3 16 -2 19 1 4 3 -2 6 -13 5 -11 0 -14 -3 -6 -6z"/>
<path d="M3578 373 c7 -3 16 -2 19 1 4 3 -2 6 -13 5 -11 0 -14 -3 -6 -6z"/>
<path d="M3538 363 c7 -3 16 -2 19 1 4 3 -2 6 -13 5 -11 0 -14 -3 -6 -6z"/>
<path d="M3458 353 c6 -2 18 -2 25 0 6 3 1 5 -13 5 -14 0 -19 -2 -12 -5z"/>
<path d="M3403 343 c9 -2 23 -2 30 0 6 3 -1 5 -18 5 -16 0 -22 -2 -12 -5z"/>
<path d="M3338 333 c7 -3 16 -2 19 1 4 3 -2 6 -13 5 -11 0 -14 -3 -6 -6z"/>
<path d="M3665 195 c-44 -13 -74 -24 -66 -24 18 -1 132 29 151 40 22 12 4 9
-85 -16z"/>
<path d="M3775 200 c-13 -5 -14 -9 -5 -9 8 0 24 4 35 9 13 5 14 9 5 9 -8 0
-24 -4 -35 -9z"/>
<path d="M3116 175 c-3 -8 -1 -15 4 -15 6 0 10 7 10 15 0 8 -2 15 -4 15 -2 0
-6 -7 -10 -15z"/>
<path d="M3658 163 c7 -3 16 -2 19 1 4 3 -2 6 -13 5 -11 0 -14 -3 -6 -6z"/>
<path d="M4466 148 c-8 -13 -20 -43 -25 -68 -20 -86 -30 -80 141 -79 l152 0
-57 56 c-48 48 -58 55 -71 44 -10 -8 -16 -9 -16 -3 0 6 6 12 12 14 17 6 -74
58 -100 58 -12 0 -28 -10 -36 -22z m184 -128 c0 -3 -8 -6 -18 -7 -11 -1 -18 6
-19 17 -2 17 1 18 18 7 10 -6 19 -14 19 -17z"/>
<path d="M3618 153 c7 -3 16 -2 19 1 4 3 -2 6 -13 5 -11 0 -14 -3 -6 -6z"/>
<path d="M3478 123 c7 -3 16 -2 19 1 4 3 -2 6 -13 5 -11 0 -14 -3 -6 -6z"/>
<path d="M3393 113 c9 -2 25 -2 35 0 9 3 1 5 -18 5 -19 0 -27 -2 -17 -5z"/>
<path d="M3648 83 c7 -3 16 -2 19 1 4 3 -2 6 -13 5 -11 0 -14 -3 -6 -6z"/>
<path d="M3370 36 c28 -17 50 -21 35 -7 -6 5 -21 12 -35 15 l-25 7 25 -15z"/>
<path d="M3266 20 c13 -13 29 -20 40 -18 18 5 18 5 -1 12 -11 4 -29 12 -40 18
-19 10 -19 9 1 -12z"/>
<path d="M3330 20 c19 -11 44 -19 55 -19 12 0 2 8 -24 19 -55 25 -77 25 -31 0z"/>
<path d="M3498 23 c7 -3 16 -2 19 1 4 3 -2 6 -13 5 -11 0 -14 -3 -6 -6z"/>
<path d="M2815 10 c3 -5 11 -10 16 -10 6 0 7 5 4 10 -3 6 -11 10 -16 10 -6 0
-7 -4 -4 -10z"/>
<path d="M3035 10 c3 -5 11 -10 16 -10 6 0 7 5 4 10 -3 6 -11 10 -16 10 -6 0
-7 -4 -4 -10z"/>
<path d="M3415 10 c-7 -11 9 -11 45 0 24 8 24 8 -7 9 -17 1 -35 -3 -38 -9z"/>
</g>
</svg>
